<?xml version="1.0" encoding="UTF-8"?>
<svg xmlns="http://www.w3.org/2000/svg" viewBox="0 0 441.92 364.04">
  <defs>
    <style>
      .cls-1 {
        fill: #fff;
      }

      .cls-2, .cls-3, .cls-4 {
        stroke: #878787;
        stroke-width: .25px;
      }

      .cls-2, .cls-3, .cls-4, .cls-5 {
        fill: none;
        stroke-linecap: round;
        stroke-miterlimit: 10;
      }

      .cls-3 {
        stroke-dasharray: 1.73 1.73;
      }

      .cls-4 {
        stroke-dasharray: 1 1;
      }

      .cls-6 {
        fill: #575756;
      }

      .cls-5 {
        stroke: #575756;
        stroke-width: .5px;
      }
    </style>
  </defs>
  <g id="Ebene_1" data-name="Ebene 1">
    <g>
      <line class="cls-2" x1="72.59" y1="30.25" x2="72.09" y2="30.25"/>
      <line class="cls-4" x1="71.09" y1="30.25" x2="43.59" y2="30.25"/>
      <line class="cls-2" x1="43.09" y1="30.25" x2="42.59" y2="30.25"/>
    </g>
    <g>
      <line class="cls-2" x1="72.59" y1="60.25" x2="72.09" y2="60.25"/>
      <line class="cls-4" x1="71.09" y1="60.25" x2="43.59" y2="60.25"/>
      <line class="cls-2" x1="43.09" y1="60.25" x2="42.59" y2="60.25"/>
    </g>
    <rect class="cls-5" x="12.59" y="30.25" width="90" height="30" transform="translate(12.34 102.84) rotate(-90)"/>
    <g>
      <rect class="cls-1" x="208.59" y=".25" width="90" height="90"/>
      <g>
        <g>
          <line class="cls-2" x1="298.59" y1="30.25" x2="297.72" y2="30.25"/>
          <line class="cls-3" x1="295.99" y1="30.25" x2="210.32" y2="30.25"/>
          <line class="cls-2" x1="209.46" y1="30.25" x2="208.59" y2="30.25"/>
        </g>
        <g>
          <line class="cls-2" x1="298.59" y1="60.25" x2="297.72" y2="60.25"/>
          <line class="cls-3" x1="295.99" y1="60.25" x2="210.32" y2="60.25"/>
          <line class="cls-2" x1="209.46" y1="60.25" x2="208.59" y2="60.25"/>
        </g>
        <g>
          <line class="cls-2" x1="268.59" y1="90.25" x2="268.59" y2="89.38"/>
          <line class="cls-3" x1="268.59" y1="87.65" x2="268.59" y2="1.98"/>
          <line class="cls-2" x1="268.59" y1="1.12" x2="268.59" y2=".25"/>
        </g>
        <g>
          <line class="cls-2" x1="238.59" y1="90.25" x2="238.59" y2="89.38"/>
          <line class="cls-3" x1="238.59" y1="87.65" x2="238.59" y2="1.98"/>
          <line class="cls-2" x1="238.59" y1="1.12" x2="238.59" y2=".25"/>
        </g>
        <rect class="cls-5" x="208.59" y=".25" width="90" height="90"/>
      </g>
    </g>
    <g>
      <g>
        <rect class="cls-1" x="316.19" y=".25" width="90" height="90"/>
        <g>
          <g>
            <line class="cls-2" x1="406.19" y1="30.25" x2="405.32" y2="30.25"/>
            <line class="cls-3" x1="403.59" y1="30.25" x2="317.92" y2="30.25"/>
            <line class="cls-2" x1="317.05" y1="30.25" x2="316.19" y2="30.25"/>
          </g>
          <g>
            <line class="cls-2" x1="406.19" y1="60.25" x2="405.32" y2="60.25"/>
            <line class="cls-3" x1="403.59" y1="60.25" x2="317.92" y2="60.25"/>
            <line class="cls-2" x1="317.05" y1="60.25" x2="316.19" y2="60.25"/>
          </g>
          <g>
            <line class="cls-2" x1="376.19" y1="90.25" x2="376.19" y2="89.38"/>
            <line class="cls-3" x1="376.19" y1="87.65" x2="376.19" y2="1.98"/>
            <line class="cls-2" x1="376.19" y1="1.12" x2="376.19" y2=".25"/>
          </g>
          <g>
            <line class="cls-2" x1="346.19" y1="90.25" x2="346.19" y2="89.38"/>
            <line class="cls-3" x1="346.19" y1="87.65" x2="346.19" y2="1.98"/>
            <line class="cls-2" x1="346.19" y1="1.12" x2="346.19" y2=".25"/>
          </g>
          <rect class="cls-5" x="316.19" y=".25" width="90" height="90"/>
        </g>
      </g>
      <g>
        <rect class="cls-1" x="331.19" y="15.25" width="90" height="90"/>
        <g>
          <g>
            <line class="cls-2" x1="421.19" y1="45.25" x2="420.32" y2="45.25"/>
            <line class="cls-3" x1="418.59" y1="45.25" x2="332.92" y2="45.25"/>
            <line class="cls-2" x1="332.05" y1="45.25" x2="331.19" y2="45.25"/>
          </g>
          <g>
            <line class="cls-2" x1="421.19" y1="75.25" x2="420.32" y2="75.25"/>
            <line class="cls-3" x1="418.59" y1="75.25" x2="332.92" y2="75.25"/>
            <line class="cls-2" x1="332.05" y1="75.25" x2="331.19" y2="75.25"/>
          </g>
          <g>
            <line class="cls-2" x1="391.19" y1="105.25" x2="391.19" y2="104.38"/>
            <line class="cls-3" x1="391.19" y1="102.65" x2="391.19" y2="16.98"/>
            <line class="cls-2" x1="391.19" y1="16.12" x2="391.19" y2="15.25"/>
          </g>
          <g>
            <line class="cls-2" x1="361.19" y1="105.25" x2="361.19" y2="104.38"/>
            <line class="cls-3" x1="361.19" y1="102.65" x2="361.19" y2="16.98"/>
            <line class="cls-2" x1="361.19" y1="16.12" x2="361.19" y2="15.25"/>
          </g>
          <rect class="cls-5" x="331.19" y="15.25" width="90" height="90"/>
        </g>
      </g>
      <g>
        <rect class="cls-1" x="346.19" y="30.25" width="90" height="90"/>
        <g>
          <g>
            <line class="cls-2" x1="436.19" y1="60.25" x2="435.32" y2="60.25"/>
            <line class="cls-3" x1="433.59" y1="60.25" x2="347.92" y2="60.25"/>
            <line class="cls-2" x1="347.05" y1="60.25" x2="346.19" y2="60.25"/>
          </g>
          <g>
            <line class="cls-2" x1="436.19" y1="90.25" x2="435.32" y2="90.25"/>
            <line class="cls-3" x1="433.59" y1="90.25" x2="347.92" y2="90.25"/>
            <line class="cls-2" x1="347.05" y1="90.25" x2="346.19" y2="90.25"/>
          </g>
          <g>
            <line class="cls-2" x1="406.19" y1="120.25" x2="406.19" y2="119.38"/>
            <line class="cls-3" x1="406.19" y1="117.65" x2="406.19" y2="31.98"/>
            <line class="cls-2" x1="406.19" y1="31.12" x2="406.19" y2="30.25"/>
          </g>
          <g>
            <line class="cls-2" x1="376.19" y1="120.25" x2="376.19" y2="119.38"/>
            <line class="cls-3" x1="376.19" y1="117.65" x2="376.19" y2="31.98"/>
            <line class="cls-2" x1="376.19" y1="31.12" x2="376.19" y2="30.25"/>
          </g>
          <rect class="cls-5" x="346.19" y="30.25" width="90" height="90"/>
        </g>
      </g>
    </g>
    <g>
      <g>
        <line class="cls-2" x1="155.59" y1="30.25" x2="155.09" y2="30.25"/>
        <line class="cls-4" x1="154.09" y1="30.25" x2="126.59" y2="30.25"/>
        <line class="cls-2" x1="126.09" y1="30.25" x2="125.59" y2="30.25"/>
      </g>
      <g>
        <line class="cls-2" x1="155.59" y1="60.25" x2="155.09" y2="60.25"/>
        <line class="cls-4" x1="154.09" y1="60.25" x2="126.59" y2="60.25"/>
        <line class="cls-2" x1="126.09" y1="60.25" x2="125.59" y2="60.25"/>
      </g>
      <rect class="cls-5" x="95.59" y="30.25" width="90" height="30" transform="translate(95.34 185.84) rotate(-90)"/>
    </g>
    <g>
      <g>
        <g>
          <line class="cls-2" x1="34.09" y1="175.61" x2="33.59" y2="175.61"/>
          <line class="cls-4" x1="32.59" y1="175.61" x2="5.09" y2="175.61"/>
          <line class="cls-2" x1="4.59" y1="175.61" x2="4.09" y2="175.61"/>
        </g>
        <g>
          <line class="cls-2" x1="34.09" y1="205.61" x2="33.59" y2="205.61"/>
          <line class="cls-4" x1="32.59" y1="205.61" x2="5.09" y2="205.61"/>
          <line class="cls-2" x1="4.59" y1="205.61" x2="4.09" y2="205.61"/>
        </g>
        <rect class="cls-5" x="-25.91" y="175.61" width="90" height="30" transform="translate(-171.52 209.7) rotate(-90)"/>
      </g>
      <g>
        <g>
          <line class="cls-2" x1="74.09" y1="175.61" x2="73.59" y2="175.61"/>
          <line class="cls-4" x1="72.59" y1="175.61" x2="45.09" y2="175.61"/>
          <line class="cls-2" x1="44.59" y1="175.61" x2="44.09" y2="175.61"/>
        </g>
        <g>
          <line class="cls-2" x1="74.09" y1="205.61" x2="73.59" y2="205.61"/>
          <line class="cls-4" x1="72.59" y1="205.61" x2="45.09" y2="205.61"/>
          <line class="cls-2" x1="44.59" y1="205.61" x2="44.09" y2="205.61"/>
        </g>
        <rect class="cls-5" x="14.09" y="175.61" width="90" height="30" transform="translate(-131.52 249.7) rotate(-90)"/>
      </g>
      <g>
        <g>
          <line class="cls-2" x1="114.09" y1="175.61" x2="113.59" y2="175.61"/>
          <line class="cls-4" x1="112.59" y1="175.61" x2="85.09" y2="175.61"/>
          <line class="cls-2" x1="84.59" y1="175.61" x2="84.09" y2="175.61"/>
        </g>
        <g>
          <line class="cls-2" x1="114.09" y1="205.61" x2="113.59" y2="205.61"/>
          <line class="cls-4" x1="112.59" y1="205.61" x2="85.09" y2="205.61"/>
          <line class="cls-2" x1="84.59" y1="205.61" x2="84.09" y2="205.61"/>
        </g>
        <rect class="cls-5" x="54.09" y="175.61" width="90" height="30" transform="translate(-91.52 289.7) rotate(-90)"/>
      </g>
      <polyline class="cls-5" points="99.09 145.61 99.09 138.31 19.09 138.69 19.09 145.61"/>
      <line class="cls-5" x1="59.09" y1="145.61" x2="59.09" y2="138.5"/>
      <circle class="cls-6" cx="19.09" cy="138.5" r="1.5"/>
      <circle class="cls-6" cx="59.09" cy="138.5" r="1.5"/>
      <circle class="cls-6" cx="99.09" cy="138.31" r="1.5"/>
    </g>
    <g>
      <g>
        <g>
          <g>
            <line class="cls-2" x1="204.86" y1="303.31" x2="204.36" y2="303.31"/>
            <line class="cls-4" x1="203.36" y1="303.31" x2="175.86" y2="303.31"/>
            <line class="cls-2" x1="175.36" y1="303.31" x2="174.86" y2="303.31"/>
          </g>
          <g>
            <line class="cls-2" x1="204.86" y1="333.31" x2="204.36" y2="333.31"/>
            <line class="cls-4" x1="203.36" y1="333.31" x2="175.86" y2="333.31"/>
            <line class="cls-2" x1="175.36" y1="333.31" x2="174.86" y2="333.31"/>
          </g>
          <rect class="cls-5" x="144.86" y="303.31" width="90" height="30" transform="translate(-128.45 508.18) rotate(-90)"/>
        </g>
        <g>
          <g>
            <line class="cls-2" x1="244.86" y1="303.31" x2="244.36" y2="303.31"/>
            <line class="cls-4" x1="243.36" y1="303.31" x2="215.86" y2="303.31"/>
            <line class="cls-2" x1="215.36" y1="303.31" x2="214.86" y2="303.31"/>
          </g>
          <g>
            <line class="cls-2" x1="244.86" y1="333.31" x2="244.36" y2="333.31"/>
            <line class="cls-4" x1="243.36" y1="333.31" x2="215.86" y2="333.31"/>
            <line class="cls-2" x1="215.36" y1="333.31" x2="214.86" y2="333.31"/>
          </g>
          <rect class="cls-5" x="184.86" y="303.31" width="90" height="30" transform="translate(-88.45 548.18) rotate(-90)"/>
        </g>
        <g>
          <g>
            <line class="cls-2" x1="284.86" y1="303.31" x2="284.36" y2="303.31"/>
            <line class="cls-4" x1="283.36" y1="303.31" x2="255.86" y2="303.31"/>
            <line class="cls-2" x1="255.36" y1="303.31" x2="254.86" y2="303.31"/>
          </g>
          <g>
            <line class="cls-2" x1="284.86" y1="333.31" x2="284.36" y2="333.31"/>
            <line class="cls-4" x1="283.36" y1="333.31" x2="255.86" y2="333.31"/>
            <line class="cls-2" x1="255.36" y1="333.31" x2="254.86" y2="333.31"/>
          </g>
          <rect class="cls-5" x="224.86" y="303.31" width="90" height="30" transform="translate(-48.45 588.18) rotate(-90)"/>
        </g>
        <polyline class="cls-5" points="269.86 273.31 269.86 266.02 189.86 266.4 189.86 273.31"/>
        <line class="cls-5" x1="229.86" y1="273.31" x2="229.86" y2="138.69"/>
        <circle class="cls-6" cx="189.86" cy="266.21" r="1.5"/>
        <circle class="cls-6" cx="229.86" cy="266.21" r="1.5"/>
        <circle class="cls-6" cx="269.86" cy="266.02" r="1.5"/>
      </g>
      <rect class="cls-5" x="254.86" y="145.8" width="30" height="30" transform="translate(109.07 430.66) rotate(-90)"/>
      <polyline class="cls-5" points="309.86 145.8 309.86 138.5 189.86 138.69 189.86 145.8"/>
      <line class="cls-5" x1="269.86" y1="145.8" x2="269.86" y2="138.69"/>
      <circle class="cls-6" cx="189.86" cy="138.69" r="1.5"/>
      <circle class="cls-6" cx="269.86" cy="138.69" r="1.5"/>
      <circle class="cls-6" cx="309.86" cy="138.5" r="1.5"/>
      <g>
        <g>
          <rect class="cls-1" x="295.52" y="145.8" width="90" height="90"/>
          <g>
            <g>
              <line class="cls-2" x1="385.52" y1="175.8" x2="384.66" y2="175.8"/>
              <line class="cls-3" x1="382.93" y1="175.8" x2="297.25" y2="175.8"/>
              <line class="cls-2" x1="296.39" y1="175.8" x2="295.52" y2="175.8"/>
            </g>
            <g>
              <line class="cls-2" x1="385.52" y1="205.8" x2="384.66" y2="205.8"/>
              <line class="cls-3" x1="382.93" y1="205.8" x2="297.25" y2="205.8"/>
              <line class="cls-2" x1="296.39" y1="205.8" x2="295.52" y2="205.8"/>
            </g>
            <g>
              <line class="cls-2" x1="355.52" y1="235.8" x2="355.52" y2="234.93"/>
              <line class="cls-3" x1="355.52" y1="233.2" x2="355.52" y2="147.53"/>
              <line class="cls-2" x1="355.52" y1="146.66" x2="355.52" y2="145.8"/>
            </g>
            <g>
              <line class="cls-2" x1="325.52" y1="235.8" x2="325.52" y2="234.93"/>
              <line class="cls-3" x1="325.52" y1="233.2" x2="325.52" y2="147.53"/>
              <line class="cls-2" x1="325.52" y1="146.66" x2="325.52" y2="145.8"/>
            </g>
            <rect class="cls-5" x="295.52" y="145.8" width="90" height="90"/>
          </g>
        </g>
        <g>
          <rect class="cls-1" x="310.52" y="160.8" width="90" height="90"/>
          <g>
            <g>
              <line class="cls-2" x1="400.52" y1="190.8" x2="399.66" y2="190.8"/>
              <line class="cls-3" x1="397.93" y1="190.8" x2="312.25" y2="190.8"/>
              <line class="cls-2" x1="311.39" y1="190.8" x2="310.52" y2="190.8"/>
            </g>
            <g>
              <line class="cls-2" x1="400.52" y1="220.8" x2="399.66" y2="220.8"/>
              <line class="cls-3" x1="397.93" y1="220.8" x2="312.25" y2="220.8"/>
              <line class="cls-2" x1="311.39" y1="220.8" x2="310.52" y2="220.8"/>
            </g>
            <g>
              <line class="cls-2" x1="370.52" y1="250.8" x2="370.52" y2="249.93"/>
              <line class="cls-3" x1="370.52" y1="248.2" x2="370.52" y2="162.53"/>
              <line class="cls-2" x1="370.52" y1="161.66" x2="370.52" y2="160.8"/>
            </g>
            <g>
              <line class="cls-2" x1="340.52" y1="250.8" x2="340.52" y2="249.93"/>
              <line class="cls-3" x1="340.52" y1="248.2" x2="340.52" y2="162.53"/>
              <line class="cls-2" x1="340.52" y1="161.66" x2="340.52" y2="160.8"/>
            </g>
            <rect class="cls-5" x="310.52" y="160.8" width="90" height="90"/>
          </g>
        </g>
        <g>
          <rect class="cls-1" x="325.52" y="175.8" width="90" height="90"/>
          <g>
            <g>
              <line class="cls-2" x1="415.52" y1="205.8" x2="414.66" y2="205.8"/>
              <line class="cls-3" x1="412.93" y1="205.8" x2="327.25" y2="205.8"/>
              <line class="cls-2" x1="326.39" y1="205.8" x2="325.52" y2="205.8"/>
            </g>
            <g>
              <line class="cls-2" x1="415.52" y1="235.8" x2="414.66" y2="235.8"/>
              <line class="cls-3" x1="412.93" y1="235.8" x2="327.25" y2="235.8"/>
              <line class="cls-2" x1="326.39" y1="235.8" x2="325.52" y2="235.8"/>
            </g>
            <g>
              <line class="cls-2" x1="385.52" y1="265.8" x2="385.52" y2="264.93"/>
              <line class="cls-3" x1="385.52" y1="263.2" x2="385.52" y2="177.53"/>
              <line class="cls-2" x1="385.52" y1="176.66" x2="385.52" y2="175.8"/>
            </g>
            <g>
              <line class="cls-2" x1="355.52" y1="265.8" x2="355.52" y2="264.93"/>
              <line class="cls-3" x1="355.52" y1="263.2" x2="355.52" y2="177.53"/>
              <line class="cls-2" x1="355.52" y1="176.66" x2="355.52" y2="175.8"/>
            </g>
            <rect class="cls-5" x="325.52" y="175.8" width="90" height="90"/>
          </g>
        </g>
      </g>
      <g>
        <g>
          <line class="cls-2" x1="204.86" y1="175.8" x2="204.36" y2="175.8"/>
          <line class="cls-4" x1="203.36" y1="175.8" x2="175.86" y2="175.8"/>
          <line class="cls-2" x1="175.36" y1="175.8" x2="174.86" y2="175.8"/>
        </g>
        <g>
          <line class="cls-2" x1="204.86" y1="205.8" x2="204.36" y2="205.8"/>
          <line class="cls-4" x1="203.36" y1="205.8" x2="175.86" y2="205.8"/>
          <line class="cls-2" x1="175.36" y1="205.8" x2="174.86" y2="205.8"/>
        </g>
        <rect class="cls-5" x="144.86" y="175.8" width="90" height="30" transform="translate(-.93 380.66) rotate(-90)"/>
      </g>
      <circle class="cls-6" cx="229.86" cy="138.69" r="1.5"/>
    </g>
    <g>
      <path class="cls-6" d="M220.79,21.15h3.31v-8.43h-2.57v-.97c1.35-.18,2.21-.45,2.95-.85h1.12v10.25h2.99v1.24h-7.8v-1.24Z"/>
      <path class="cls-6" d="M254.47,14.48c.02-.63.05-1.4.09-2.03h-.09c-.38.56-.79,1.12-1.17,1.67l-3.1,3.89h7.45v1.21h-9.11v-.99l5.73-7.33h1.6v11.49h-1.4v-7.9Z"/>
      <path class="cls-6" d="M284.51,12.2h-6.61v-1.3h8.32v.92c-3.04,3.48-3.78,6.07-3.96,10.57h-1.57c.2-4.34,1.21-6.99,3.82-10.19Z"/>
      <path class="cls-6" d="M220.36,51.51c3.89-3.44,6.01-5.46,6.01-7.36,0-1.31-.79-2.23-2.48-2.23-1.08,0-2.02.61-2.75,1.37l-.86-.85c1.04-1.04,2.18-1.75,3.8-1.75,2.3,0,3.75,1.35,3.75,3.39,0,2.16-2.16,4.3-5.28,7.13.72-.05,1.46-.09,2.14-.09h3.76v1.28h-8.08v-.88Z"/>
      <path class="cls-6" d="M248.85,51.04l.74-.99c.77.68,1.71,1.31,3.24,1.31s2.9-1.01,2.9-2.61-1.12-2.5-2.81-2.5c-.95,0-1.53.23-2.34.68l-.79-.5.38-5.53h6.5v1.3h-5.19l-.31,3.38c.67-.29,1.26-.47,2.12-.47,2.2,0,3.94,1.12,3.94,3.6s-2.05,3.89-4.25,3.89c-2.05,0-3.26-.77-4.14-1.57Z"/>
      <path class="cls-6" d="M277.87,49.45c0-1.58,1.22-2.48,2.47-3.06v-.07c-.95-.59-1.75-1.48-1.75-2.68,0-1.76,1.49-2.95,3.55-2.95,2.25,0,3.57,1.28,3.57,3.06,0,1.08-.79,2.07-1.75,2.74v.07c1.26.63,2.25,1.35,2.25,2.99s-1.49,3.06-4.12,3.06-4.21-1.33-4.21-3.15ZM284.78,49.49c0-1.58-1.6-2-3.6-2.66-1.12.59-1.96,1.33-1.96,2.48,0,1.26,1.13,2.18,2.9,2.18s2.67-.81,2.67-2ZM284.4,43.82c0-1.12-.81-2.02-2.3-2.02-1.26,0-2.14.72-2.14,1.84,0,1.37,1.31,1.94,3.03,2.48.94-.68,1.42-1.46,1.42-2.3Z"/>
      <path class="cls-6" d="M220.07,80.98l.76-.97c.76.72,1.82,1.35,3.29,1.35,1.57,0,2.74-.81,2.74-2.09,0-1.37-1.15-2.29-4.16-2.29v-1.13c2.72,0,3.76-.94,3.76-2.14,0-1.1-.95-1.8-2.34-1.8-1.08,0-2.07.49-2.83,1.15l-.79-.94c.95-.83,2.2-1.44,3.67-1.44,2.16,0,3.8,1.06,3.8,2.92,0,1.39-1.03,2.27-2.45,2.74v.07c1.53.32,2.84,1.33,2.84,2.92,0,2.03-1.87,3.28-4.16,3.28-1.98,0-3.29-.77-4.14-1.62Z"/>
      <path class="cls-6" d="M249.23,77.08c0-4.61,2.3-6.39,4.81-6.39,1.4,0,2.45.52,3.21,1.22l-.83.94c-.59-.56-1.42-.92-2.29-.92-1.87,0-3.49,1.31-3.49,5.15,0,2.83,1.08,4.36,2.99,4.36,1.35,0,2.41-1.01,2.41-2.52s-.85-2.43-2.43-2.43c-.92,0-2.02.45-3.01,1.62l-.05-1.17c.96-.95,2.14-1.57,3.33-1.57,2.12,0,3.58,1.19,3.58,3.55,0,2.2-1.78,3.69-3.83,3.69-2.5,0-4.39-1.84-4.39-5.53Z"/>
      <path class="cls-6" d="M278.06,81.4l.83-.94c.58.54,1.41.9,2.29.9,1.85,0,3.49-1.31,3.49-5.15,0-2.83-1.1-4.34-2.99-4.34-1.37,0-2.43.99-2.43,2.5s.86,2.43,2.45,2.43c.9,0,2-.45,2.99-1.62l.05,1.17c-.94.97-2.14,1.57-3.33,1.57-2.12,0-3.57-1.19-3.57-3.55,0-2.2,1.78-3.69,3.82-3.69,2.5,0,4.41,1.84,4.41,5.53,0,4.61-2.32,6.39-4.81,6.39-1.4,0-2.45-.52-3.21-1.21Z"/>
    </g>
    <g>
      <path class="cls-6" d="M337.12,197.05h3.31v-8.43h-2.58v-.97c1.35-.18,2.21-.45,2.95-.85h1.12v10.25h2.99v1.24h-7.8v-1.24Z"/>
      <path class="cls-6" d="M370.8,190.39c.02-.63.05-1.4.09-2.03h-.09c-.38.56-.79,1.12-1.17,1.67l-3.1,3.89h7.45v1.21h-9.11v-.99l5.73-7.33h1.6v11.49h-1.4v-7.9Z"/>
      <path class="cls-6" d="M400.84,188.1h-6.61v-1.3h8.32v.92c-3.04,3.48-3.78,6.07-3.96,10.57h-1.57c.2-4.34,1.21-6.99,3.82-10.19Z"/>
      <path class="cls-6" d="M336.69,227.41c3.89-3.44,6.01-5.46,6.01-7.36,0-1.31-.79-2.23-2.49-2.23-1.08,0-2.02.61-2.75,1.37l-.86-.85c1.04-1.04,2.18-1.75,3.8-1.75,2.3,0,3.75,1.35,3.75,3.39,0,2.16-2.16,4.3-5.28,7.13.72-.05,1.46-.09,2.14-.09h3.76v1.28h-8.08v-.88Z"/>
      <path class="cls-6" d="M365.18,226.94l.74-.99c.77.68,1.71,1.31,3.24,1.31s2.9-1.01,2.9-2.61-1.12-2.5-2.81-2.5c-.95,0-1.53.23-2.34.68l-.79-.5.38-5.53h6.5v1.3h-5.19l-.31,3.38c.67-.29,1.26-.47,2.12-.47,2.2,0,3.94,1.12,3.94,3.6s-2.05,3.89-4.25,3.89c-2.05,0-3.26-.77-4.14-1.57Z"/>
      <path class="cls-6" d="M394.2,225.36c0-1.58,1.22-2.48,2.47-3.06v-.07c-.95-.59-1.75-1.48-1.75-2.68,0-1.76,1.49-2.95,3.55-2.95,2.25,0,3.57,1.28,3.57,3.06,0,1.08-.79,2.07-1.75,2.74v.07c1.26.63,2.25,1.35,2.25,2.99s-1.49,3.06-4.12,3.06-4.21-1.33-4.21-3.15ZM401.11,225.4c0-1.58-1.6-2-3.6-2.66-1.12.59-1.96,1.33-1.96,2.48,0,1.26,1.13,2.18,2.9,2.18s2.67-.81,2.67-2ZM400.73,219.72c0-1.12-.81-2.02-2.3-2.02-1.26,0-2.14.72-2.14,1.84,0,1.37,1.31,1.94,3.03,2.48.94-.68,1.42-1.46,1.42-2.3Z"/>
      <path class="cls-6" d="M336.4,256.89l.76-.97c.76.72,1.82,1.35,3.29,1.35,1.57,0,2.74-.81,2.74-2.09,0-1.37-1.15-2.29-4.16-2.29v-1.13c2.72,0,3.76-.94,3.76-2.14,0-1.1-.95-1.8-2.34-1.8-1.08,0-2.07.49-2.83,1.15l-.79-.94c.95-.83,2.2-1.44,3.67-1.44,2.16,0,3.8,1.06,3.8,2.92,0,1.39-1.03,2.27-2.45,2.74v.07c1.53.32,2.84,1.33,2.84,2.92,0,2.03-1.87,3.28-4.16,3.28-1.98,0-3.29-.77-4.14-1.62Z"/>
      <path class="cls-6" d="M365.56,252.98c0-4.61,2.3-6.39,4.81-6.39,1.4,0,2.45.52,3.21,1.22l-.83.94c-.59-.56-1.42-.92-2.29-.92-1.87,0-3.49,1.31-3.49,5.15,0,2.83,1.08,4.36,2.99,4.36,1.35,0,2.41-1.01,2.41-2.52s-.85-2.43-2.43-2.43c-.92,0-2.02.45-3.01,1.62l-.05-1.17c.96-.95,2.14-1.57,3.33-1.57,2.12,0,3.58,1.19,3.58,3.55,0,2.2-1.78,3.69-3.83,3.69-2.5,0-4.39-1.84-4.39-5.53Z"/>
      <path class="cls-6" d="M394.4,257.3l.83-.94c.58.54,1.41.9,2.29.9,1.85,0,3.49-1.31,3.49-5.15,0-2.83-1.1-4.34-2.99-4.34-1.37,0-2.43.99-2.43,2.5s.86,2.43,2.45,2.43c.9,0,2-.45,2.99-1.62l.05,1.17c-.94.97-2.14,1.57-3.33,1.57-2.12,0-3.57-1.19-3.57-3.55,0-2.2,1.78-3.69,3.82-3.69,2.5,0,4.41,1.84,4.41,5.53,0,4.61-2.32,6.39-4.81,6.39-1.4,0-2.45-.52-3.21-1.21Z"/>
    </g>
    <g>
      <path class="cls-6" d="M186.21,165.32h3.31v-8.43h-2.57v-.97c1.35-.18,2.21-.45,2.95-.85h1.12v10.25h2.99v1.24h-7.8v-1.24Z"/>
      <path class="cls-6" d="M185.78,195.68c3.89-3.44,6.01-5.46,6.01-7.36,0-1.31-.79-2.23-2.48-2.23-1.08,0-2.02.61-2.75,1.37l-.86-.85c1.04-1.04,2.18-1.75,3.8-1.75,2.3,0,3.75,1.35,3.75,3.39,0,2.16-2.16,4.3-5.28,7.13.72-.05,1.46-.09,2.14-.09h3.76v1.28h-8.08v-.88Z"/>
      <path class="cls-6" d="M185.49,225.16l.76-.97c.76.72,1.82,1.35,3.29,1.35,1.57,0,2.74-.81,2.74-2.09,0-1.37-1.15-2.29-4.16-2.29v-1.13c2.72,0,3.76-.94,3.76-2.14,0-1.1-.95-1.8-2.34-1.8-1.08,0-2.07.49-2.83,1.15l-.79-.94c.95-.83,2.2-1.44,3.67-1.44,2.16,0,3.8,1.06,3.8,2.92,0,1.39-1.03,2.27-2.45,2.74v.07c1.53.32,2.84,1.33,2.84,2.92,0,2.03-1.87,3.28-4.16,3.28-1.98,0-3.29-.77-4.14-1.62Z"/>
    </g>
    <g>
      <path class="cls-6" d="M186.21,294.62h3.31v-8.43h-2.57v-.97c1.35-.18,2.21-.45,2.95-.85h1.12v10.25h2.99v1.24h-7.8v-1.24Z"/>
      <path class="cls-6" d="M185.78,324.98c3.89-3.44,6.01-5.46,6.01-7.36,0-1.31-.79-2.23-2.48-2.23-1.08,0-2.02.61-2.75,1.37l-.86-.85c1.04-1.04,2.18-1.75,3.8-1.75,2.3,0,3.75,1.35,3.75,3.39,0,2.16-2.16,4.3-5.28,7.13.72-.05,1.46-.09,2.14-.09h3.76v1.28h-8.08v-.88Z"/>
      <path class="cls-6" d="M185.49,354.46l.76-.97c.76.72,1.82,1.35,3.29,1.35,1.57,0,2.74-.81,2.74-2.09,0-1.37-1.15-2.29-4.16-2.29v-1.13c2.72,0,3.76-.94,3.76-2.14,0-1.1-.95-1.8-2.34-1.8-1.08,0-2.07.49-2.83,1.15l-.79-.94c.95-.83,2.2-1.44,3.67-1.44,2.16,0,3.8,1.06,3.8,2.92,0,1.39-1.03,2.27-2.45,2.74v.07c1.53.32,2.84,1.33,2.84,2.92,0,2.03-1.87,3.28-4.16,3.28-1.98,0-3.29-.77-4.14-1.62Z"/>
    </g>
    <g>
      <path class="cls-6" d="M225.51,287.11h1.19l.13,1.15h.04c.45-.81.99-1.37,2-1.37.86,0,1.4.5,1.66,1.51.5-.94,1.04-1.51,2.05-1.51,1.22,0,1.94.95,1.94,2.7v6.27h-1.48v-6.16c0-1.01-.29-1.53-.94-1.53-.61,0-.94.45-1.4,1.35v6.34h-1.37v-6.16c0-1.01-.25-1.53-.9-1.53-.61,0-1.01.45-1.44,1.35v6.34h-1.48v-8.75Z"/>
      <path class="cls-6" d="M226.32,317.2l2.54-.09h5.1v1.21h-7.63v-1.12ZM228.82,316.38c0-2.12,1.12-3.55,3.53-3.55.86,0,1.69.16,2.52.5l-.34,1.12c-.72-.31-1.28-.41-2.03-.41-1.57,0-2.2.88-2.2,2.29v9.54h-1.48v-9.49Z"/>
      <path class="cls-6" d="M226.32,347.2l2.54-.09h5.1v1.21h-7.63v-1.12ZM228.82,346.38c0-2.12,1.12-3.55,3.53-3.55.86,0,1.69.16,2.52.5l-.34,1.12c-.72-.31-1.28-.41-2.03-.41-1.57,0-2.2.88-2.2,2.29v9.54h-1.48v-9.49Z"/>
    </g>
    <g>
      <path class="cls-6" d="M265.9,293.6c0-1.96,1.84-2.92,6.36-3.28-.05-1.19-.63-2.2-2.32-2.2-1.13,0-2.25.54-3.06,1.04l-.59-1.01c.9-.58,2.38-1.26,3.91-1.26,2.39,0,3.56,1.42,3.56,3.6v5.37h-1.24l-.13-1.19h-.05c-.95.76-2.21,1.4-3.44,1.4-1.64,0-2.99-.92-2.99-2.48ZM272.26,293.58v-2.27c-3.75.29-4.88,1.03-4.88,2.18,0,.99.9,1.39,1.91,1.39s1.96-.47,2.97-1.3Z"/>
      <path class="cls-6" d="M267.52,324.89h-.05l-.14.97h-1.19v-12.82h1.5v3.49l-.07,1.69h.05c.79-.81,1.91-1.33,2.94-1.33,2.36,0,3.64,1.75,3.64,4.45,0,2.99-1.87,4.74-3.94,4.74-.86,0-1.91-.45-2.72-1.19ZM272.66,321.36c0-1.93-.72-3.2-2.47-3.2-.77,0-1.67.4-2.56,1.3v4.36c.81.74,1.73,1.01,2.36,1.01,1.51,0,2.67-1.3,2.67-3.46Z"/>
      <path class="cls-6" d="M265.9,351.51c0-2.93,2.23-4.61,4.88-4.61,1.42,0,2.47.58,3.19,1.28l-.74.96c-.72-.61-1.48-.99-2.39-.99-2.02,0-3.4,1.35-3.4,3.37s1.37,3.33,3.37,3.33c1.08,0,1.98-.49,2.7-1.1l.67.97c-.97.86-2.18,1.37-3.48,1.37-2.74,0-4.79-1.67-4.79-4.57Z"/>
    </g>
    <g>
      <path class="cls-6" d="M15.44,166.82h3.31v-8.43h-2.57v-.97c1.35-.18,2.21-.45,2.95-.85h1.12v10.25h2.99v1.24h-7.8v-1.24Z"/>
      <path class="cls-6" d="M15,197.18c3.89-3.44,6.01-5.46,6.01-7.36,0-1.31-.79-2.23-2.48-2.23-1.08,0-2.02.61-2.75,1.37l-.86-.85c1.04-1.04,2.18-1.75,3.8-1.75,2.3,0,3.75,1.35,3.75,3.39,0,2.16-2.16,4.3-5.28,7.13.72-.05,1.46-.09,2.14-.09h3.76v1.28h-8.08v-.88Z"/>
      <path class="cls-6" d="M14.72,226.66l.76-.97c.76.72,1.82,1.35,3.29,1.35,1.57,0,2.74-.81,2.74-2.09,0-1.37-1.15-2.29-4.16-2.29v-1.13c2.72,0,3.76-.94,3.76-2.14,0-1.1-.95-1.8-2.34-1.8-1.08,0-2.07.49-2.83,1.15l-.79-.94c.95-.83,2.2-1.44,3.67-1.44,2.16,0,3.8,1.06,3.8,2.92,0,1.39-1.03,2.27-2.45,2.74v.07c1.53.32,2.84,1.33,2.84,2.92,0,2.03-1.87,3.28-4.16,3.28-1.98,0-3.29-.77-4.14-1.62Z"/>
    </g>
    <g>
      <path class="cls-6" d="M54.73,159.31h1.19l.13,1.15h.04c.45-.81.99-1.37,2-1.37.86,0,1.4.5,1.66,1.51.5-.94,1.04-1.51,2.05-1.51,1.22,0,1.94.95,1.94,2.7v6.27h-1.48v-6.16c0-1.01-.29-1.53-.94-1.53-.61,0-.94.45-1.4,1.35v6.34h-1.37v-6.16c0-1.01-.25-1.53-.9-1.53-.61,0-1.01.45-1.44,1.35v6.34h-1.48v-8.75Z"/>
      <path class="cls-6" d="M55.54,189.4l2.54-.09h5.1v1.21h-7.63v-1.12ZM58.05,188.57c0-2.12,1.12-3.55,3.53-3.55.86,0,1.69.16,2.52.5l-.34,1.12c-.72-.31-1.28-.41-2.03-.41-1.57,0-2.2.88-2.2,2.29v9.54h-1.48v-9.49Z"/>
      <path class="cls-6" d="M55.54,219.4l2.54-.09h5.1v1.21h-7.63v-1.12ZM58.05,218.57c0-2.12,1.12-3.55,3.53-3.55.86,0,1.69.16,2.52.5l-.34,1.12c-.72-.31-1.28-.41-2.03-.41-1.57,0-2.2.88-2.2,2.29v9.54h-1.48v-9.49Z"/>
    </g>
    <g>
      <path class="cls-6" d="M95.13,165.79c0-1.96,1.84-2.92,6.36-3.28-.05-1.19-.63-2.2-2.32-2.2-1.13,0-2.25.54-3.06,1.04l-.59-1.01c.9-.58,2.38-1.26,3.91-1.26,2.4,0,3.56,1.42,3.56,3.6v5.37h-1.24l-.13-1.19h-.05c-.95.76-2.21,1.4-3.44,1.4-1.64,0-2.99-.92-2.99-2.48ZM101.49,165.77v-2.27c-3.75.29-4.88,1.03-4.88,2.18,0,.99.9,1.39,1.91,1.39s1.96-.47,2.97-1.3Z"/>
      <path class="cls-6" d="M96.75,197.09h-.05l-.14.97h-1.19v-12.82h1.49v3.49l-.07,1.69h.05c.79-.81,1.91-1.33,2.94-1.33,2.36,0,3.64,1.75,3.64,4.45,0,2.99-1.87,4.74-3.94,4.74-.86,0-1.91-.45-2.72-1.19ZM101.88,193.56c0-1.93-.72-3.2-2.47-3.2-.77,0-1.67.4-2.56,1.3v4.36c.81.74,1.73,1.01,2.36,1.01,1.51,0,2.66-1.3,2.66-3.46Z"/>
      <path class="cls-6" d="M95.13,223.7c0-2.93,2.23-4.61,4.88-4.61,1.42,0,2.47.58,3.19,1.28l-.74.95c-.72-.61-1.48-.99-2.39-.99-2.02,0-3.4,1.35-3.4,3.37s1.37,3.33,3.37,3.33c1.08,0,1.98-.49,2.7-1.1l.67.97c-.97.86-2.18,1.37-3.48,1.37-2.74,0-4.79-1.67-4.79-4.57Z"/>
    </g>
    <g>
      <path class="cls-6" d="M13.96,11.86h-3.91v-1.28h9.33v1.28h-3.91v10.53h-1.51v-10.53Z"/>
      <path class="cls-6" d="M11.71,40.58h7.26v1.28h-5.74v3.98h4.86v1.28h-4.86v5.28h-1.51v-11.81Z"/>
      <path class="cls-6" d="M13.96,71.86h-3.91v-1.28h9.33v1.28h-3.91v10.53h-1.51v-10.53Z"/>
    </g>
    <g>
      <path class="cls-6" d="M53.94,21.15h3.31v-8.43h-2.57v-.97c1.35-.18,2.21-.45,2.95-.85h1.12v10.25h2.99v1.24h-7.8v-1.24Z"/>
      <path class="cls-6" d="M53.5,51.51c3.89-3.44,6.01-5.46,6.01-7.36,0-1.31-.79-2.23-2.48-2.23-1.08,0-2.02.61-2.75,1.37l-.86-.85c1.04-1.04,2.18-1.75,3.8-1.75,2.3,0,3.75,1.35,3.75,3.39,0,2.16-2.16,4.3-5.28,7.13.72-.05,1.46-.09,2.14-.09h3.76v1.28h-8.08v-.88Z"/>
      <path class="cls-6" d="M53.22,80.98l.76-.97c.76.72,1.82,1.35,3.29,1.35,1.57,0,2.74-.81,2.74-2.09,0-1.37-1.15-2.29-4.16-2.29v-1.13c2.72,0,3.76-.94,3.76-2.14,0-1.1-.95-1.8-2.34-1.8-1.08,0-2.07.49-2.83,1.15l-.79-.94c.95-.83,2.2-1.44,3.67-1.44,2.16,0,3.8,1.06,3.8,2.92,0,1.39-1.03,2.27-2.45,2.74v.07c1.53.32,2.84,1.33,2.84,2.92,0,2.03-1.87,3.28-4.16,3.28-1.98,0-3.29-.77-4.14-1.62Z"/>
    </g>
    <g>
      <path class="cls-6" d="M96.63,20.12c0-1.96,1.84-2.92,6.36-3.28-.05-1.19-.63-2.2-2.32-2.2-1.13,0-2.25.54-3.06,1.04l-.59-1.01c.9-.58,2.38-1.26,3.91-1.26,2.4,0,3.56,1.42,3.56,3.6v5.37h-1.24l-.13-1.19h-.05c-.95.76-2.21,1.4-3.44,1.4-1.64,0-2.99-.92-2.99-2.48ZM102.99,20.1v-2.27c-3.75.29-4.88,1.03-4.88,2.18,0,.99.9,1.39,1.91,1.39s1.96-.47,2.97-1.3Z"/>
      <path class="cls-6" d="M98.25,51.42h-.05l-.14.97h-1.19v-12.82h1.49v3.49l-.07,1.69h.05c.79-.81,1.91-1.33,2.94-1.33,2.36,0,3.64,1.75,3.64,4.45,0,2.99-1.87,4.74-3.94,4.74-.86,0-1.91-.45-2.72-1.19ZM103.38,47.89c0-1.93-.72-3.2-2.47-3.2-.77,0-1.67.4-2.56,1.3v4.36c.81.74,1.73,1.01,2.36,1.01,1.51,0,2.66-1.3,2.66-3.46Z"/>
      <path class="cls-6" d="M96.63,78.03c0-2.93,2.23-4.61,4.88-4.61,1.42,0,2.47.58,3.19,1.28l-.74.95c-.72-.61-1.48-.99-2.39-.99-2.02,0-3.4,1.35-3.4,3.37s1.37,3.33,3.37,3.33c1.08,0,1.98-.49,2.7-1.1l.67.97c-.97.86-2.18,1.37-3.48,1.37-2.74,0-4.79-1.67-4.79-4.57Z"/>
    </g>
    <g>
      <path class="cls-6" d="M136.23,13.64h1.19l.13,1.15h.04c.45-.81.99-1.37,2-1.37.86,0,1.4.5,1.66,1.51.5-.94,1.04-1.51,2.05-1.51,1.22,0,1.94.95,1.94,2.7v6.27h-1.48v-6.16c0-1.01-.29-1.53-.94-1.53-.61,0-.94.45-1.4,1.35v6.34h-1.37v-6.16c0-1.01-.25-1.53-.9-1.53-.61,0-1.01.45-1.44,1.35v6.34h-1.48v-8.75Z"/>
      <path class="cls-6" d="M137.04,43.73l2.54-.09h5.1v1.21h-7.63v-1.12ZM139.55,42.9c0-2.12,1.12-3.55,3.53-3.55.86,0,1.69.16,2.52.5l-.34,1.12c-.72-.31-1.28-.41-2.03-.41-1.57,0-2.2.88-2.2,2.29v9.54h-1.48v-9.49Z"/>
      <path class="cls-6" d="M137.04,73.73l2.54-.09h5.1v1.21h-7.63v-1.12ZM139.55,72.9c0-2.12,1.12-3.55,3.53-3.55.86,0,1.69.16,2.52.5l-.34,1.12c-.72-.31-1.28-.41-2.03-.41-1.57,0-2.2.88-2.2,2.29v9.54h-1.48v-9.49Z"/>
    </g>
    <g>
      <path class="cls-6" d="M357.27,51.15h3.31v-8.43h-2.57v-.97c1.35-.18,2.21-.45,2.95-.85h1.12v10.25h2.99v1.24h-7.8v-1.24Z"/>
      <path class="cls-6" d="M390.95,44.48c.02-.63.05-1.4.09-2.03h-.09c-.38.56-.79,1.12-1.17,1.67l-3.1,3.89h7.45v1.21h-9.11v-.99l5.73-7.33h1.6v11.49h-1.4v-7.9Z"/>
      <path class="cls-6" d="M420.99,42.2h-6.61v-1.3h8.32v.92c-3.04,3.48-3.78,6.07-3.96,10.57h-1.57c.2-4.34,1.21-6.99,3.82-10.19Z"/>
      <path class="cls-6" d="M356.84,81.51c3.89-3.44,6.01-5.46,6.01-7.36,0-1.31-.79-2.23-2.48-2.23-1.08,0-2.02.61-2.75,1.37l-.86-.85c1.04-1.04,2.18-1.75,3.8-1.75,2.3,0,3.75,1.35,3.75,3.39,0,2.16-2.16,4.3-5.28,7.13.72-.05,1.46-.09,2.14-.09h3.76v1.28h-8.08v-.88Z"/>
      <path class="cls-6" d="M385.33,81.04l.74-.99c.77.68,1.71,1.31,3.24,1.31s2.9-1.01,2.9-2.61-1.12-2.5-2.81-2.5c-.96,0-1.53.23-2.34.68l-.79-.5.38-5.53h6.5v1.3h-5.19l-.31,3.38c.67-.29,1.26-.47,2.12-.47,2.2,0,3.94,1.12,3.94,3.6s-2.05,3.89-4.25,3.89c-2.05,0-3.26-.77-4.14-1.57Z"/>
      <path class="cls-6" d="M414.35,79.45c0-1.58,1.22-2.48,2.47-3.06v-.07c-.95-.59-1.75-1.48-1.75-2.68,0-1.76,1.5-2.95,3.55-2.95,2.25,0,3.56,1.28,3.56,3.06,0,1.08-.79,2.07-1.75,2.74v.07c1.26.63,2.25,1.35,2.25,2.99s-1.5,3.06-4.12,3.06-4.21-1.33-4.21-3.15ZM421.26,79.49c0-1.58-1.6-2-3.6-2.66-1.12.59-1.96,1.33-1.96,2.48,0,1.26,1.13,2.18,2.9,2.18s2.67-.81,2.67-2ZM420.88,73.82c0-1.12-.81-2.02-2.3-2.02-1.26,0-2.14.72-2.14,1.84,0,1.37,1.31,1.94,3.02,2.48.94-.68,1.42-1.46,1.42-2.3Z"/>
      <path class="cls-6" d="M356.55,110.98l.76-.97c.76.72,1.82,1.35,3.29,1.35,1.57,0,2.74-.81,2.74-2.09,0-1.37-1.15-2.29-4.16-2.29v-1.13c2.72,0,3.76-.94,3.76-2.14,0-1.1-.95-1.8-2.34-1.8-1.08,0-2.07.49-2.83,1.15l-.79-.94c.95-.83,2.2-1.44,3.67-1.44,2.16,0,3.8,1.06,3.8,2.92,0,1.39-1.03,2.27-2.45,2.74v.07c1.53.32,2.84,1.33,2.84,2.92,0,2.03-1.87,3.28-4.16,3.28-1.98,0-3.29-.77-4.14-1.62Z"/>
      <path class="cls-6" d="M385.71,107.08c0-4.61,2.3-6.39,4.81-6.39,1.4,0,2.45.52,3.21,1.22l-.83.94c-.59-.56-1.42-.92-2.29-.92-1.87,0-3.49,1.31-3.49,5.15,0,2.83,1.08,4.36,2.99,4.36,1.35,0,2.41-1.01,2.41-2.52s-.85-2.43-2.43-2.43c-.92,0-2.02.45-3.01,1.62l-.05-1.17c.95-.95,2.14-1.57,3.33-1.57,2.12,0,3.58,1.19,3.58,3.55,0,2.2-1.78,3.69-3.83,3.69-2.5,0-4.39-1.84-4.39-5.53Z"/>
      <path class="cls-6" d="M414.55,111.4l.83-.94c.58.54,1.4.9,2.29.9,1.86,0,3.49-1.31,3.49-5.15,0-2.83-1.1-4.34-2.99-4.34-1.37,0-2.43.99-2.43,2.5s.86,2.43,2.45,2.43c.9,0,2-.45,2.99-1.62l.05,1.17c-.94.97-2.14,1.57-3.33,1.57-2.12,0-3.56-1.19-3.56-3.55,0-2.2,1.78-3.69,3.82-3.69,2.5,0,4.41,1.84,4.41,5.53,0,4.61-2.32,6.39-4.81,6.39-1.4,0-2.45-.52-3.21-1.21Z"/>
    </g>
  </g>
  <g id="Ebene_2" data-name="Ebene 2">
    <g>
      <g>
        <line class="cls-2" x1="114.09" y1="30.25" x2="113.59" y2="30.25"/>
        <line class="cls-4" x1="112.59" y1="30.25" x2="85.09" y2="30.25"/>
        <line class="cls-2" x1="84.59" y1="30.25" x2="84.09" y2="30.25"/>
      </g>
      <g>
        <line class="cls-2" x1="114.09" y1="60.25" x2="113.59" y2="60.25"/>
        <line class="cls-4" x1="112.59" y1="60.25" x2="85.09" y2="60.25"/>
        <line class="cls-2" x1="84.59" y1="60.25" x2="84.09" y2="60.25"/>
      </g>
      <rect class="cls-5" x="54.09" y="30.25" width="90" height="30" transform="translate(53.84 144.34) rotate(-90)"/>
    </g>
    <g>
      <g>
        <line class="cls-2" x1="30.25" y1="30.25" x2="29.75" y2="30.25"/>
        <line class="cls-4" x1="28.75" y1="30.25" x2="1.25" y2="30.25"/>
        <line class="cls-2" x1=".75" y1="30.25" x2=".25" y2="30.25"/>
      </g>
      <g>
        <line class="cls-2" x1="30.25" y1="60.25" x2="29.75" y2="60.25"/>
        <line class="cls-4" x1="28.75" y1="60.25" x2="1.25" y2="60.25"/>
        <line class="cls-2" x1=".75" y1="60.25" x2=".25" y2="60.25"/>
      </g>
      <rect class="cls-5" x="-29.75" y="30.25" width="90" height="30" transform="translate(-30 60.5) rotate(-90)"/>
    </g>
    <path class="cls-6" d="M269.14,156.03h-3.91v-1.28h9.33v1.28h-3.91v10.53h-1.51v-10.53Z"/>
  </g>
</svg>